<svg xmlns="http://www.w3.org/2000/svg" viewBox="0 0 800 600" preserveAspectRatio="xMidYMid slice">
  <defs>
    <radialGradient id="g1" cx="30%" cy="40%" r="80%">
      <stop offset="0%" stop-color="#0E2E47"/>
      <stop offset="60%" stop-color="#061F33"/>
      <stop offset="100%" stop-color="#03101C"/>
    </radialGradient>
    <radialGradient id="star" cx="50%" cy="50%" r="50%">
      <stop offset="0%" stop-color="#C89755" stop-opacity="0.95"/>
      <stop offset="60%" stop-color="#A87C3E" stop-opacity="0.4"/>
      <stop offset="100%" stop-color="#A87C3E" stop-opacity="0"/>
    </radialGradient>
  </defs>
  <rect width="800" height="600" fill="url(#g1)"/>
  <g fill="url(#star)">
    <circle cx="120" cy="90" r="3.2"/>
    <circle cx="210" cy="160" r="2.1"/>
    <circle cx="320" cy="80" r="4.4"/>
    <circle cx="420" cy="140" r="2.6"/>
    <circle cx="520" cy="60" r="3"/>
    <circle cx="640" cy="120" r="2.2"/>
    <circle cx="710" cy="220" r="3.4"/>
    <circle cx="80" cy="260" r="2.8"/>
    <circle cx="180" cy="340" r="2"/>
    <circle cx="270" cy="270" r="3.6"/>
    <circle cx="380" cy="360" r="2.4"/>
    <circle cx="480" cy="280" r="4"/>
    <circle cx="580" cy="370" r="2.2"/>
    <circle cx="680" cy="320" r="3"/>
    <circle cx="140" cy="460" r="2.6"/>
    <circle cx="240" cy="510" r="3.8"/>
    <circle cx="350" cy="470" r="2.1"/>
    <circle cx="450" cy="540" r="3.2"/>
    <circle cx="560" cy="490" r="2.4"/>
    <circle cx="660" cy="540" r="2.8"/>
    <circle cx="730" cy="430" r="3.4"/>
  </g>
  <g stroke="#C89755" stroke-opacity="0.18" stroke-width="0.6" fill="none">
    <line x1="120" y1="90" x2="320" y2="80"/>
    <line x1="320" y1="80" x2="420" y2="140"/>
    <line x1="420" y1="140" x2="480" y2="280"/>
    <line x1="480" y1="280" x2="580" y2="370"/>
    <line x1="270" y1="270" x2="380" y2="360"/>
    <line x1="240" y1="510" x2="450" y2="540"/>
  </g>
</svg>